<svg width="46" height="51" viewBox="0 0 46 51" fill="none" xmlns="http://www.w3.org/2000/svg">
<path d="M2 23.5C0.895431 23.5 0 24.3954 0 25.5C0 26.6046 0.895431 27.5 2 27.5V25.5V23.5ZM44 25.5L45.4105 26.918C45.7878 26.5426 46 26.0323 46 25.5C46 24.9677 45.7878 24.4574 45.4105 24.082L44 25.5ZM21.7855 0.58204C21.0023 -0.196934 19.736 -0.193575 18.957 0.589543C18.1781 1.37266 18.1814 2.63899 18.9645 3.41796L20.375 2L21.7855 0.58204ZM18.9645 47.582C18.1814 48.361 18.1781 49.6273 18.957 50.4105C19.736 51.1936 21.0023 51.1969 21.7855 50.418L20.375 49L18.9645 47.582ZM36.125 33.3333L37.5355 34.7513L37.5355 34.7513L36.125 33.3333ZM36.125 17.6667L34.7145 19.0846L34.7145 19.0846L36.125 17.6667ZM2 25.5V27.5H44V25.5V23.5H2V25.5ZM44 25.5L42.5895 24.082L34.7145 31.9154L36.125 33.3333L37.5355 34.7513L45.4105 26.918L44 25.5ZM36.125 33.3333L34.7145 31.9154L18.9645 47.582L20.375 49L21.7855 50.418L37.5355 34.7513L36.125 33.3333ZM44 25.5L45.4105 24.082L37.5355 16.2487L36.125 17.6667L34.7145 19.0846L42.5895 26.918L44 25.5ZM36.125 17.6667L37.5355 16.2487L21.7855 0.58204L20.375 2L18.9645 3.41796L34.7145 19.0846L36.125 17.6667Z" fill="currentColor"/>
</svg>
