<svg width="293" height="162" viewBox="0 0 293 162" fill="none" xmlns="http://www.w3.org/2000/svg">
<path d="M265.266 125.952C262.885 125.952 261.695 124.762 261.695 122.381C261.695 121.701 261.922 121.134 262.375 120.681L284.821 91.6031L262.375 62.5252C261.922 62.0718 261.695 61.505 261.695 60.8248C261.695 58.4441 262.885 57.2538 265.266 57.2538C266.286 57.2538 267.023 57.6506 267.476 58.4441L291.113 88.8824C291.793 89.6759 292.133 90.5828 292.133 91.6031C292.133 92.51 291.623 93.6437 290.603 95.004L267.476 124.762C267.023 125.556 266.286 125.952 265.266 125.952Z" fill="white"/>
<path d="M112.002 63.5258C109.8 63.5258 108.698 62.4246 108.698 60.2221C108.698 59.5743 109.152 58.4082 110.059 56.724C110.966 54.9101 112.002 53.0963 113.168 51.2825C114.334 49.4687 115.241 48.2379 115.889 47.5901C118.092 45.1285 119.776 43.5738 120.942 42.926C122.237 42.2782 123.403 41.9543 124.44 41.9543C127.161 41.9543 128.521 43.1851 128.521 45.6467C128.521 46.5536 127.938 47.6549 126.772 48.9504C125.735 50.1165 124.505 51.2177 123.08 52.2542C121.007 53.5498 119.711 54.5862 119.193 55.3636L114.917 61.3881C114.788 61.9063 114.464 62.4246 113.946 62.9428C113.557 63.3315 112.909 63.5258 112.002 63.5258ZM78.9647 142.233C75.3371 142.233 72.6811 141.52 70.9969 140.095C69.4422 138.67 68.6648 136.532 68.6648 133.682C68.6648 130.961 69.5069 127.269 71.1912 122.605C72.8755 117.811 75.0132 112.693 77.6044 107.252C80.3251 101.81 83.1754 96.6281 86.1553 91.7049C89.1351 86.7816 91.9854 82.7653 94.7061 79.6559C97.5564 76.4169 99.8237 74.7974 101.508 74.7974C103.84 74.7974 105.006 75.8339 105.006 77.9068C105.006 79.2024 103.905 81.664 101.702 85.2917C99.4998 88.9193 97.103 92.6765 94.5118 96.5633C93.4753 97.9885 92.0502 99.9318 90.2364 102.393C88.4225 104.855 86.6735 107.187 84.9892 109.39C83.305 111.463 82.2037 112.888 81.6855 113.665C80.3899 115.608 79.0295 118.783 77.6044 123.188C76.0497 127.593 75.2723 130.961 75.2723 133.293C75.2723 134.33 75.4666 135.107 75.8553 135.625C76.3736 136.144 77.4748 136.403 79.1591 136.403C82.3981 136.403 86.0257 135.366 90.042 133.293C94.0583 131.22 98.1394 128.629 102.285 125.52C106.431 122.281 110.318 118.977 113.946 115.608C117.703 112.24 120.877 109.325 123.468 106.863C123.986 106.345 124.764 106.086 125.8 106.086C127.744 106.086 128.715 106.863 128.715 108.418C128.715 109.843 127.808 111.463 125.995 113.276C122.497 116.774 119.258 119.884 116.278 122.605C113.298 125.325 110.448 127.722 107.727 129.795C103.451 132.905 98.7225 135.755 93.5401 138.346C88.3578 140.937 83.4993 142.233 78.9647 142.233Z" fill="white"/>
<path d="M155.561 144.371C147.917 144.371 141.051 142.427 134.961 138.54C128.872 134.654 124.079 129.471 120.58 122.993C117.212 116.386 115.528 109.195 115.528 101.422C115.528 99.7375 115.592 98.1828 115.722 96.7577C115.981 95.2029 116.24 93.7778 116.499 92.4822C124.402 58.6674 142.152 34.699 169.748 20.5771C181.279 14.7469 191.06 11.8318 199.093 11.8318C205.701 11.8318 212.049 13.257 218.138 16.1073C224.228 18.9576 229.669 22.8443 234.463 27.7676C239.386 32.6908 243.208 38.2618 245.929 44.4807C248.779 50.5699 250.204 56.9183 250.204 63.5258C250.204 65.5987 250.075 67.6717 249.815 69.7446C249.556 71.8176 249.168 73.9553 248.649 76.1578C246.836 83.0244 242.949 90.5388 236.989 98.701C232.584 104.661 227.531 110.232 221.831 115.414C216.13 120.467 209.846 125.066 202.98 129.212C188.34 138.022 174.023 143.075 160.031 144.371V144.176C159.513 144.306 158.865 144.371 158.088 144.371C157.44 144.371 156.598 144.371 155.561 144.371ZM155.561 138.152C163.205 138.152 171.432 136.403 180.242 132.905C189.052 129.406 197.603 124.678 205.895 118.718C214.316 112.758 221.507 106.021 227.466 98.5067C237.443 86.1986 242.431 74.2144 242.431 62.5541C242.431 56.8535 241.265 51.3473 238.932 46.0354C236.73 40.7235 233.621 35.9946 229.604 31.8487C225.717 27.7028 221.248 24.399 216.195 21.9374C211.142 19.4758 205.765 18.245 200.065 18.245C192.421 18.245 183.416 20.901 173.052 26.2129C147.01 39.687 130.427 62.6189 123.301 95.0086C123.042 96.4338 122.783 97.8589 122.524 99.284C122.394 100.58 122.329 101.94 122.329 103.365C122.329 109.973 123.69 115.932 126.411 121.244C129.261 126.427 133.148 130.573 138.071 133.682C143.124 136.662 148.954 138.152 155.561 138.152Z" fill="white"/>
<path d="M49.2153 140.094C45.7172 140.094 43.9681 138.475 43.9681 135.236C43.9681 131.738 45.5876 129.989 48.8266 129.989C52.3247 129.989 54.0737 131.608 54.0737 134.847C54.0737 138.345 52.4542 140.094 49.2153 140.094Z" fill="white"/>
<path d="M26.8673 126.122C26.0737 126.122 25.3368 125.669 24.6567 124.762L1.02028 94.3238C0.340092 93.4169 0 92.5667 0 91.7731C0 90.8662 0.56682 89.6759 1.70046 88.2022L24.6567 58.4441C25.1101 57.6506 25.847 57.2538 26.8673 57.2538C29.3613 57.2538 30.6083 58.4441 30.6083 60.8248C30.6083 61.505 30.3815 62.0718 29.9281 62.5252L7.31198 91.6031L29.9281 120.681C30.3815 121.248 30.6083 121.871 30.6083 122.551C30.6083 123.458 30.0981 124.252 29.0779 124.932C28.2843 125.726 27.5474 126.122 26.8673 126.122Z" fill="white"/>
<path d="M131.645 161.158C129.615 161.574 128.391 160.767 127.975 158.736C127.819 157.974 127.93 157.224 128.308 156.486C128.812 155.721 130.225 153.58 132.546 150.063C134.842 146.419 138.008 141.538 142.045 135.421L211.076 30.8217L230.073 1.53843C230.577 0.773819 231.274 0.300511 232.162 0.11851C234.32 -0.323491 235.607 0.470892 236.023 2.50166C236.153 3.13627 235.965 3.83589 235.461 4.6005C234.175 6.71543 231.261 11.2137 226.72 18.0952C222.305 24.9508 216.263 34.1896 208.592 45.8118L133.545 159.777L133.735 159.738C133.23 160.503 132.534 160.976 131.645 161.158Z" fill="white"/>
</svg>
