<svg width="443" height="56" viewBox="0 0 443 56" fill="none" xmlns="http://www.w3.org/2000/svg">
<g clip-path="url(#clip0_183_974)">
<path d="M288.143 56C258.864 56 232.446 49.18 208.89 35.54C185.555 21.9 167.062 3.42002 153.413 -19.9C139.764 -43.44 132.939 -69.84 132.939 -99.1V-283.9C132.939 -313.16 139.764 -339.45 153.413 -362.77C167.062 -386.31 185.555 -404.9 208.89 -418.54C232.446 -432.18 258.864 -439 288.143 -439C317.423 -439 343.73 -432.18 367.066 -418.54C390.622 -404.9 409.224 -386.31 422.873 -362.77C436.522 -339.45 443.347 -313.16 443.347 -283.9V-99.1C443.347 -69.84 436.522 -43.44 422.873 -19.9C409.224 3.42002 390.622 21.9 367.066 35.54C343.73 49.18 317.423 56 288.143 56ZM288.143 9.14004C307.736 9.14004 325.568 4.41002 341.639 -5.04998C357.71 -14.73 370.478 -27.6 379.945 -43.66C389.411 -59.72 394.144 -77.43 394.144 -96.79V-286.21C394.144 -305.79 389.411 -323.61 379.945 -339.67C370.478 -355.73 357.71 -368.49 341.639 -377.95C325.568 -387.63 307.736 -392.47 288.143 -392.47C268.55 -392.47 250.718 -387.63 234.647 -377.95C218.577 -368.49 205.808 -355.73 196.342 -339.67C186.875 -323.61 182.142 -305.79 182.142 -286.21V-96.79C182.142 -77.43 186.875 -59.72 196.342 -43.66C205.808 -27.6 218.577 -14.73 234.647 -5.04998C250.718 4.41002 268.55 9.14004 288.143 9.14004Z" fill="white"/>
<path d="M66.4688 -367.555V-408.005C66.4688 -415.737 72.7368 -422.005 80.4688 -422.005H122.939V-367.555H66.4688ZM66.4688 56.4951V-299.905H122.939V56.4951H66.4688Z" fill="white"/>
<path d="M56.4678 56.1807H14C6.26803 56.1807 1.84082e-05 49.9126 0 42.1807V-0.287109H56.4678V56.1807ZM21 20.7129V27.7129C21 31.5789 24.134 34.7129 28 34.7129H35V20.7129H21Z" fill="white"/>
</g>
<defs>
<clipPath id="clip0_183_974">
<rect width="443" height="56" fill="white"/>
</clipPath>
</defs>
</svg>
