<svg width="444" height="496" viewBox="0 0 444 496" fill="none" xmlns="http://www.w3.org/2000/svg">
<path d="M288.143 495C258.864 495 232.446 488.18 208.89 474.54C185.555 460.9 167.062 442.42 153.413 419.1C139.764 395.56 132.939 369.16 132.939 339.9V155.1C132.939 125.84 139.764 99.55 153.413 76.23C167.062 52.69 185.555 34.1 208.89 20.46C232.446 6.81999 258.864 0 288.143 0C317.423 0 343.73 6.81999 367.066 20.46C390.622 34.1 409.224 52.69 422.873 76.23C436.522 99.55 443.347 125.84 443.347 155.1V339.9C443.347 369.16 436.522 395.56 422.873 419.1C409.224 442.42 390.622 460.9 367.066 474.54C343.73 488.18 317.423 495 288.143 495ZM288.143 448.14C307.736 448.14 325.568 443.41 341.639 433.95C357.71 424.27 370.478 411.4 379.945 395.34C389.411 379.28 394.144 361.57 394.144 342.21V152.79C394.144 133.21 389.411 115.39 379.945 99.33C370.478 83.27 357.71 70.51 341.639 61.05C325.568 51.37 307.736 46.53 288.143 46.53C268.55 46.53 250.718 51.37 234.647 61.05C218.577 70.51 205.808 83.27 196.342 99.33C186.875 115.39 182.142 133.21 182.142 152.79V342.21C182.142 361.57 186.875 379.28 196.342 395.34C205.808 411.4 218.577 424.27 234.647 433.95C250.718 443.41 268.55 448.14 288.143 448.14Z" fill="black"/>
<path d="M66.4688 71.4451V30.9951C66.4688 23.2631 72.7368 16.9951 80.4688 16.9951H122.939V71.4451H66.4688ZM66.4688 495.495V139.095H122.939V495.495H66.4688Z" fill="black"/>
<path d="M56.4678 495.181H14C6.26803 495.181 1.84082e-05 488.913 0 481.181V438.713H56.4678V495.181ZM21 459.713V466.713C21 470.579 24.134 473.713 28 473.713H35V459.713H21Z" fill="black"/>
<rect x="263" y="233" width="49" height="49" rx="24.5" fill="black"/>
</svg>
