<svg width="246" height="170" viewBox="0 0 246 170" fill="none" xmlns="http://www.w3.org/2000/svg">
<path d="M237.247 7.16992C238.865 7.16992 240.337 8.06743 241.593 9.18359C242.859 10.3093 243.961 11.756 243.961 13.5068V13.9795L243.548 14.8057L243.533 14.832C242.6 16.5655 241.415 18.4046 239.991 20.3467L239.972 20.373L239.951 20.3994C238.506 22.2393 236.688 24.2485 234.513 26.4238L234.448 26.4883L234.379 26.5459C233.733 27.0839 232.74 28.0692 231.367 29.5664L231.357 29.5771C231.383 29.5516 231.326 29.618 231.143 29.8867C230.953 30.1643 230.689 30.5642 230.347 31.0928C229.666 32.1454 228.7 33.6696 227.449 35.6709C225.073 39.5485 222.758 43.4257 220.507 47.3027C218.379 51.0575 216.252 54.9397 214.123 58.9473L214.116 58.959C207.341 71.5054 201.322 83.2922 196.059 94.3203L196.055 94.3281C190.789 105.237 186.217 115.384 182.337 124.771L182.332 124.782L182.327 124.795C181.233 127.347 179.762 131.2 177.91 136.38C177.77 137.288 177.567 138.152 177.295 138.97C177.048 139.712 176.799 140.454 176.552 141.196C175.955 143.376 174.819 145.2 172.897 146.161L172.771 146.225L172.636 146.27C171.903 146.514 170.827 146.561 169.74 146.561C168.117 146.561 166.585 146.352 165.394 145.706C164.768 145.367 164.199 144.887 163.794 144.229C163.386 143.567 163.215 142.836 163.215 142.109V141.863L163.274 141.624L163.463 140.87H163.464C163.65 140.019 164.153 138.624 164.866 136.841L164.888 136.788L164.911 136.737C165.782 134.871 166.907 132.372 168.287 129.235C170.816 123.293 174.033 116.292 177.935 108.238C184.474 94.4042 190.576 81.885 196.24 70.6826C199.798 63.6471 203.183 57.153 206.397 51.2012C204.782 52.6304 202.999 54.2067 201.044 55.9268C200.299 56.6135 199.37 56.8027 198.591 56.8027C197.334 56.8027 196.034 56.2988 194.791 55.6084C194.123 55.2375 193.49 54.7964 193.003 54.2549C192.536 53.7364 192.12 53.0271 192.07 52.1514L192.065 51.9746L192.075 51.75C192.118 51.2377 192.299 50.7986 192.45 50.4941C192.639 50.1128 192.89 49.7299 193.165 49.3584C193.717 48.6135 194.498 47.7398 195.468 46.7539C197.416 44.7731 200.298 42.1661 204.084 38.9482L204.111 38.9248L217.571 27.8955L222.561 22.3516L222.6 22.3105C225.09 19.6954 227.324 17.2111 229.306 14.8584C231.298 12.4921 233.034 10.3218 234.516 8.34668L234.891 7.84766L235.483 7.64941C235.86 7.52374 236.143 7.43003 236.332 7.36719C236.426 7.33578 236.497 7.31161 236.544 7.2959C236.567 7.2881 236.585 7.28224 236.597 7.27832C236.603 7.27636 236.607 7.2754 236.61 7.27441C236.612 7.27395 236.613 7.27271 236.613 7.27246H236.614L236.923 7.16992H237.247Z" fill="white" stroke="white" stroke-width="4"/>
<path d="M113.621 14.5239C120.331 14.5239 126.78 15.9732 132.949 18.8608C139.073 21.7272 144.542 25.6352 149.354 30.5718H149.354C154.302 35.5188 158.153 41.1291 160.896 47.395C163.771 53.5519 165.215 59.9871 165.215 66.6821C165.215 68.7769 165.084 70.8715 164.822 72.9644C164.561 75.0518 164.17 77.1964 163.652 79.397L163.646 79.4243L163.64 79.4497C161.795 86.4318 157.879 93.9501 152.007 101.993L152 102.001C147.645 107.894 142.654 113.396 137.029 118.509L137.02 118.518L137.011 118.527C131.384 123.514 125.188 128.048 118.427 132.13L118.424 132.131C104.016 140.802 89.8382 145.827 75.9043 147.118L73.7197 147.32V147.126H71.3828C63.6078 147.126 56.5672 145.143 50.3184 141.155C44.1177 137.197 39.2332 131.913 35.6807 125.334L35.6699 125.313L35.6592 125.292C32.2403 118.586 30.5381 111.295 30.5381 103.453C30.5381 101.768 30.6033 100.199 30.7354 98.7466L30.7412 98.6724L30.7539 98.5981C31.0082 97.0724 31.2632 95.6679 31.5195 94.3862L31.5332 94.3237C39.3173 61.0179 56.8706 37.2336 84.2373 23.229L84.2451 23.2241C95.5613 17.5025 105.379 14.524 113.621 14.5239ZM114.564 24.7466C107.589 24.7466 99.1781 27.1771 89.2715 32.2534L89.2725 32.2544C64.6159 45.0121 48.8519 66.7086 42.042 97.6206C41.7981 98.9621 41.5535 100.304 41.3096 101.645C41.1955 102.81 41.1377 104.041 41.1377 105.338C41.1377 111.453 42.3915 116.906 44.8604 121.741C47.4576 126.456 50.98 130.213 55.4434 133.041C59.9974 135.722 65.2895 137.092 71.3828 137.092C78.4943 137.092 86.2249 135.465 94.5928 132.142C102.978 128.813 111.131 124.305 119.054 118.611L119.06 118.607L119.066 118.603C127.094 112.922 133.929 106.513 139.585 99.3813L139.592 99.3735L139.599 99.3647C149.093 87.6513 153.672 76.4544 153.672 65.7397C153.672 60.4902 152.6 55.4204 150.446 50.5151L150.438 50.4966L150.43 50.478C148.389 45.5573 145.513 41.1801 141.79 37.3374L141.778 37.3257L141.768 37.314C138.161 33.467 134.021 30.4081 129.34 28.1274C124.714 25.8738 119.797 24.7466 114.564 24.7466Z" fill="white" stroke="white" stroke-width="4"/>
<path d="M8.71387 129.172C10.6827 129.172 12.5325 129.624 13.8916 130.883C15.2797 132.168 15.8056 133.965 15.8057 135.886C15.8057 137.855 15.3531 139.704 14.0947 141.063C12.8094 142.452 11.0117 142.978 9.09082 142.978C7.12228 142.977 5.27307 142.525 3.91406 141.267C2.52587 139.981 2 138.184 2 136.263C2.00007 134.294 2.45263 132.445 3.71094 131.086C4.99624 129.698 6.79311 129.172 8.71387 129.172Z" fill="white" stroke="white" stroke-width="4"/>
<line x1="46.548" y1="160.287" x2="146.881" y2="7.00083" stroke="white" stroke-width="14" stroke-linecap="round"/>
</svg>
