<svg width="291" height="170" viewBox="0 0 291 170" fill="none" xmlns="http://www.w3.org/2000/svg">
<path d="M262.703 11.8843C269.557 11.8843 275.328 13.3606 279.851 16.4849L280.285 16.7925L280.287 16.7944C285.53 20.62 288.085 26.23 288.085 33.3062C288.085 41.8486 284.823 51.3866 278.562 61.8628C265.436 83.9033 238.955 107.385 199.44 132.358C213.58 135.397 225.988 136.904 236.681 136.904C247.49 136.904 255.3 135.88 260.292 133.971C262.774 133.022 264.419 131.907 265.415 130.722C266.352 129.608 266.79 128.347 266.741 126.839L266.576 125.844L266.549 125.681V125.515C266.549 124.064 266.868 122.602 267.859 121.495C268.888 120.345 270.316 119.933 271.754 119.933C273.298 119.933 274.671 120.576 275.551 121.924C276.334 123.124 276.583 124.671 276.583 126.27C276.583 129.729 275.717 132.845 273.928 135.542C272.147 138.227 269.528 140.383 266.194 142.058C259.584 145.38 249.921 146.938 237.436 146.938C222.519 146.938 205.761 144.413 187.18 139.405C179.539 143.354 172.639 145.429 166.534 145.429C162.812 145.429 159.337 144.531 156.146 142.732C152.136 140.646 149.638 137.641 149.638 133.624C149.638 130.162 151.435 127.439 154.537 125.516C156.942 124.013 159.85 123.327 163.141 123.327C164.629 123.327 167.346 123.873 171.03 124.802C174.658 125.717 179.449 127.064 185.393 128.84L185.749 128.663L186.625 128.137C229.809 101.522 257.475 77.6008 270.034 56.4233L270.037 56.4175C275.766 46.8283 278.429 39.2921 278.429 33.6841C278.429 29.5811 277.096 26.7955 274.653 24.9575C272.104 23.039 268.041 21.9185 262.138 21.9185C254.455 21.9185 246.396 23.9579 237.942 28.1235L237.93 28.1294C230.08 31.9316 223.162 36.8319 217.164 42.8296C216.102 43.892 214.768 45.4042 213.154 47.3901L213.113 47.439C211.526 49.271 209.683 51.5405 207.584 54.2544C206.668 55.7318 205.182 56.4263 203.493 56.4263C202.116 56.4262 200.716 56.0802 199.675 55.0386C198.633 53.997 198.288 52.597 198.288 51.2202C198.288 50.0604 198.745 49.0543 199.488 48.2524C206.441 38.1271 215.616 29.6841 226.978 22.9175C239.155 15.6108 251.073 11.8843 262.703 11.8843ZM164.648 133.361C163.071 133.361 162.207 133.592 161.802 133.817C161.631 133.912 161.593 133.977 161.591 133.981C161.591 133.981 161.558 134.028 161.558 134.19C161.558 134.303 161.58 134.324 161.586 134.332C161.608 134.362 161.712 134.484 162.039 134.633C162.744 134.956 164.047 135.207 166.157 135.207C167.539 135.207 169.019 135.041 170.601 134.706C169.898 134.492 169.247 134.303 168.648 134.139C166.584 133.576 165.3 133.361 164.648 133.361Z" fill="white" stroke="white" stroke-width="4"/>
<path d="M113.621 14.5239C120.331 14.5239 126.78 15.9732 132.949 18.8608C139.073 21.7272 144.542 25.6352 149.354 30.5718H149.354C154.302 35.5188 158.153 41.1291 160.896 47.395C163.771 53.5519 165.215 59.9871 165.215 66.6821C165.215 68.7769 165.084 70.8715 164.822 72.9644C164.561 75.0518 164.17 77.1964 163.652 79.397L163.646 79.4243L163.64 79.4497C161.795 86.4318 157.879 93.9501 152.007 101.993L152 102.001C147.645 107.894 142.654 113.396 137.029 118.509L137.02 118.518L137.011 118.527C131.384 123.514 125.188 128.048 118.427 132.13L118.424 132.131C104.016 140.802 89.8382 145.827 75.9043 147.118L73.7197 147.32V147.126H71.3828C63.6078 147.126 56.5672 145.143 50.3184 141.155C44.1177 137.197 39.2332 131.913 35.6807 125.334L35.6699 125.313L35.6592 125.292C32.2403 118.586 30.5381 111.295 30.5381 103.453C30.5381 101.768 30.6033 100.199 30.7354 98.7466L30.7412 98.6724L30.7539 98.5981C31.0082 97.0724 31.2632 95.6679 31.5195 94.3862L31.5332 94.3237C39.3173 61.0179 56.8706 37.2336 84.2373 23.229L84.2451 23.2241C95.5613 17.5025 105.379 14.524 113.621 14.5239ZM114.564 24.7466C107.589 24.7466 99.1781 27.1771 89.2715 32.2534L89.2725 32.2544C64.6159 45.0121 48.8519 66.7086 42.042 97.6206C41.7981 98.9621 41.5535 100.304 41.3096 101.645C41.1955 102.81 41.1377 104.041 41.1377 105.338C41.1377 111.453 42.3915 116.906 44.8604 121.741C47.4576 126.456 50.98 130.213 55.4434 133.041C59.9974 135.722 65.2895 137.092 71.3828 137.092C78.4943 137.092 86.2249 135.465 94.5928 132.142C102.978 128.813 111.131 124.305 119.054 118.611L119.06 118.607L119.066 118.603C127.094 112.922 133.929 106.513 139.585 99.3813L139.592 99.3735L139.599 99.3647C149.093 87.6513 153.672 76.4544 153.672 65.7397C153.672 60.4902 152.6 55.4204 150.446 50.5151L150.438 50.4966L150.43 50.478C148.389 45.5573 145.513 41.1801 141.79 37.3374L141.778 37.3257L141.768 37.314C138.161 33.467 134.021 30.4081 129.34 28.1274C124.714 25.8738 119.797 24.7466 114.564 24.7466Z" fill="white" stroke="white" stroke-width="4"/>
<path d="M8.71387 129.172C10.6827 129.172 12.5325 129.624 13.8916 130.883C15.2797 132.168 15.8056 133.965 15.8057 135.886C15.8057 137.855 15.3531 139.704 14.0947 141.063C12.8094 142.452 11.0117 142.978 9.09082 142.978C7.12228 142.977 5.27307 142.525 3.91406 141.267C2.52587 139.981 2 138.184 2 136.263C2.00007 134.294 2.45263 132.445 3.71094 131.086C4.99624 129.698 6.79311 129.172 8.71387 129.172Z" fill="white" stroke="white" stroke-width="4"/>
<line x1="46.548" y1="160.287" x2="146.881" y2="7.00083" stroke="white" stroke-width="14" stroke-linecap="round"/>
</svg>
