<svg width="291" height="170" viewBox="0 0 291 170" fill="none" xmlns="http://www.w3.org/2000/svg">
<path d="M260.629 15.0156C269.47 15.0156 276.456 16.5261 281.279 19.8467C286.238 23.2601 288.651 28.4028 288.651 34.9297C288.651 48.8387 278.286 63.2014 258.82 78.0537C261.681 79.8799 263.971 82.1549 265.638 84.8975C267.812 88.4752 268.852 92.7172 268.852 97.5332V99.3125L268.845 99.3955C267.511 115.533 256.943 128.475 237.981 138.341H237.98C221.995 146.653 205.337 150.823 188.031 150.823C182.539 150.823 177.695 150.44 173.52 149.657H173.517C168.519 148.712 164.259 146.598 160.812 143.289L160.783 143.261L160.755 143.231C157.354 139.689 155.672 135.284 155.672 130.155C155.672 128.321 156.128 126.366 156.946 124.321C157.787 122.22 158.932 120.41 160.406 118.936C161.844 117.377 163.574 116.275 165.592 116.275C166.529 116.275 167.598 116.511 168.42 117.333C169.242 118.155 169.478 119.224 169.478 120.161C169.478 120.969 169.127 121.819 168.812 122.482C168.451 123.24 167.936 124.146 167.288 125.182C166.207 126.911 165.706 128.622 165.706 130.344C165.706 132.13 166.115 133.599 166.869 134.821C167.627 136.049 168.802 137.141 170.502 138.06C173.962 139.929 179.409 140.978 187.088 140.978C191.392 140.978 195.698 140.67 200.005 140.055C204.309 139.44 208.552 138.518 212.734 137.288L212.738 137.287C223.728 134.077 233.25 129.46 241.334 123.458C251.312 115.785 256.544 107.469 257.498 98.54V97.3447C257.498 93.3967 256.672 90.457 255.213 88.3467C253.89 86.4336 251.931 85.0347 249.184 84.2129C239.123 89.6579 230.763 92.5566 224.235 92.5566C221.526 92.5566 219.251 92.3059 217.584 91.6709C216.736 91.348 215.921 90.8798 215.306 90.1768C214.655 89.4337 214.316 88.5245 214.316 87.5391C214.316 87.2541 214.338 86.9212 214.423 86.583C214.467 86.4059 214.539 86.1848 214.661 85.9541C215.996 81.4458 219.764 78.5322 225.183 76.9463L225.188 76.9443C233.659 74.4888 240.967 73.351 247.06 73.627C257.308 66.7815 264.911 60.1872 269.955 53.8594C275.084 47.4257 277.485 41.3784 277.485 35.6836C277.485 31.6618 276.15 28.927 273.682 27.1133C271.098 25.2151 266.98 24.1064 261.006 24.1064C248.159 24.1065 236.519 29.2465 226.027 39.7383C225.828 39.9376 225.44 40.4417 224.841 41.3945C224.33 42.4117 223.646 43.7175 222.791 45.3057C221.393 48.0607 218.631 50.3444 214.915 52.2861C213.939 52.9513 212.741 53.1465 211.602 53.1465C210.017 53.1465 208.461 52.8498 207.268 51.9277C205.976 50.9299 205.453 49.4749 205.453 47.9404C205.453 46.8424 205.733 45.7685 206.419 44.8545C220.811 25.0767 238.908 15.0156 260.629 15.0156Z" fill="white" stroke="white" stroke-width="4"/>
<path d="M113.621 16.5239C120.331 16.5239 126.78 17.9732 132.949 20.8608C139.073 23.7272 144.542 27.6352 149.354 32.5718H149.354C154.302 37.5188 158.153 43.1291 160.896 49.395C163.771 55.5519 165.215 61.9871 165.215 68.6821C165.215 70.7769 165.084 72.8715 164.822 74.9644C164.561 77.0518 164.17 79.1964 163.652 81.397L163.646 81.4243L163.64 81.4497C161.795 88.4318 157.879 95.9501 152.007 103.993L152 104.001C147.645 109.894 142.654 115.396 137.029 120.509L137.02 120.518L137.011 120.527C131.384 125.514 125.188 130.048 118.427 134.13L118.424 134.131C104.016 142.802 89.8382 147.827 75.9043 149.118L73.7197 149.32V149.126H71.3828C63.6078 149.126 56.5672 147.143 50.3184 143.155C44.1177 139.197 39.2332 133.913 35.6807 127.334L35.6699 127.313L35.6592 127.292C32.2403 120.586 30.5381 113.295 30.5381 105.453C30.5381 103.768 30.6033 102.199 30.7354 100.747L30.7412 100.672L30.7539 100.598C31.0082 99.0724 31.2632 97.6679 31.5195 96.3862L31.5332 96.3237C39.3173 63.0179 56.8706 39.2336 84.2373 25.229L84.2451 25.2241C95.5613 19.5025 105.379 16.524 113.621 16.5239ZM114.564 26.7466C107.589 26.7466 99.1781 29.1771 89.2715 34.2534L89.2725 34.2544C64.6159 47.0121 48.8519 68.7086 42.042 99.6206C41.7981 100.962 41.5535 102.304 41.3096 103.645C41.1955 104.81 41.1377 106.041 41.1377 107.338C41.1377 113.453 42.3915 118.906 44.8604 123.741C47.4576 128.456 50.98 132.213 55.4434 135.041C59.9974 137.722 65.2895 139.092 71.3828 139.092C78.4943 139.092 86.2249 137.465 94.5928 134.142C102.978 130.813 111.131 126.305 119.054 120.611L119.06 120.607L119.066 120.603C127.094 114.922 133.929 108.513 139.585 101.381L139.592 101.374L139.599 101.365C149.093 89.6513 153.672 78.4544 153.672 67.7397C153.672 62.4902 152.6 57.4204 150.446 52.5151L150.438 52.4966L150.43 52.478C148.389 47.5573 145.513 43.1801 141.79 39.3374L141.778 39.3257L141.768 39.314C138.161 35.467 134.021 32.4081 129.34 30.1274C124.714 27.8738 119.797 26.7466 114.564 26.7466Z" fill="white" stroke="white" stroke-width="4"/>
<path d="M8.71387 131.172C10.6827 131.172 12.5325 131.624 13.8916 132.883C15.2797 134.168 15.8056 135.965 15.8057 137.886C15.8057 139.855 15.3531 141.704 14.0947 143.063C12.8094 144.452 11.0117 144.978 9.09082 144.978C7.12228 144.977 5.27307 144.525 3.91406 143.267C2.52587 141.981 2 140.184 2 138.263C2.00007 136.294 2.45263 134.445 3.71094 133.086C4.99624 131.698 6.79311 131.172 8.71387 131.172Z" fill="white" stroke="white" stroke-width="4"/>
<line x1="47.548" y1="160.287" x2="147.881" y2="7.00083" stroke="white" stroke-width="14" stroke-linecap="round"/>
</svg>
