<svg width="284" height="170" viewBox="0 0 284 170" fill="none" xmlns="http://www.w3.org/2000/svg">
<path d="M274.771 12.8838C276.299 12.8838 277.738 13.6305 279.017 14.625C280.33 15.6469 281.485 17.0428 281.485 18.8438C281.485 20.054 280.935 21.2236 280.263 22.25C279.572 23.3036 278.592 24.4448 277.375 25.667C276.636 26.529 275.898 27.3918 275.159 28.2539L275.108 28.3115L275.055 28.3662C274.326 29.0953 273.537 29.8829 272.69 30.7295C271.964 31.642 270.634 33.6699 268.658 36.9424C266.661 40.251 264.062 44.727 260.86 50.377V50.3779C256.095 58.7808 251.517 67.1832 247.128 75.585C243.349 82.9198 239.669 90.2544 236.088 97.5889C238.111 97.5619 240.045 97.4301 241.891 97.1895C244.708 96.822 247.395 96.3328 249.954 95.7246C253.627 94.7596 256.162 93.5166 257.748 92.1123C259.271 90.7641 259.949 89.2522 259.949 87.4814V86.1621C259.949 84.7112 260.269 83.2493 261.26 82.1416C262.289 80.9916 263.717 80.5792 265.154 80.5791C266.814 80.5791 268.233 81.3144 269.121 82.7568C269.911 84.0399 270.172 85.7073 270.172 87.4814C270.172 90.9218 269.283 94.0195 267.454 96.6953C265.635 99.3559 262.965 101.485 259.573 103.139C253.068 106.31 243.653 107.857 231.529 107.956C229.723 111.723 227.967 115.595 226.263 119.571C224.4 123.917 222.598 128.388 220.857 132.984C220.473 134.384 219.971 136.012 219.354 137.864C218.832 139.686 218.124 141.741 217.237 144.022C216.285 146.718 213.606 147.561 210.848 147.561C209.224 147.561 207.693 147.352 206.501 146.706C205.875 146.367 205.306 145.887 204.901 145.229C204.494 144.567 204.322 143.836 204.322 143.108C204.322 142.504 204.458 141.808 204.636 141.117C204.822 140.392 205.091 139.532 205.436 138.548C206.125 136.578 207.147 134.013 208.49 130.868C210.956 125.096 214.543 117.282 219.245 107.438C213.608 107.124 207.882 106.538 202.069 105.677L202.063 105.676C195.58 104.697 188.982 103.421 182.271 101.854C178.971 103.557 176.071 104.567 173.7 104.567C172.031 104.567 170.173 104.191 168.165 103.521L168.053 103.484L167.946 103.434C166.773 102.881 165.741 102.245 164.979 101.482C164.199 100.703 163.592 99.6739 163.592 98.4189C163.592 95.7329 165.186 93.7322 167.568 92.374C169.81 90.9767 172.115 90.1964 174.454 90.1963L174.661 90.2021C175.028 90.223 175.388 90.2981 175.723 90.3936C176 90.4043 176.283 90.4279 176.57 90.4639C184.347 84.6251 193.67 77.5142 204.54 69.1279L209.436 65.3457C222.86 54.9326 238.477 42.7011 256.289 28.6523C258.049 26.8947 260.231 24.7757 262.833 22.2979C265.617 19.6401 268.777 16.7336 272.309 13.5801V13.5811C272.84 13.1016 273.479 12.9929 273.688 12.958C274.032 12.9007 274.408 12.8838 274.771 12.8838ZM250.788 46.3389C249.164 47.6369 247.45 48.9925 245.643 50.4023L245.638 50.4062C239.459 55.1978 232.153 60.6783 223.72 66.8457L223.708 66.8535C215.174 73.0029 207.778 78.5183 201.518 83.4014L201.498 83.417C196.777 87.0051 192.78 90.1563 189.503 92.873C200.666 95.4451 212.017 96.9866 223.558 97.4971C233.194 77.0681 242.271 60.0087 250.788 46.3389Z" fill="white" stroke="white" stroke-width="4"/>
<path d="M113.621 15.5239C120.331 15.5239 126.78 16.9732 132.949 19.8608C139.073 22.7272 144.542 26.6352 149.354 31.5718H149.354C154.302 36.5188 158.153 42.1291 160.896 48.395C163.771 54.5519 165.215 60.9871 165.215 67.6821C165.215 69.7769 165.084 71.8715 164.822 73.9644C164.561 76.0518 164.17 78.1964 163.652 80.397L163.646 80.4243L163.64 80.4497C161.795 87.4318 157.879 94.9501 152.007 102.993L152 103.001C147.645 108.894 142.654 114.396 137.029 119.509L137.02 119.518L137.011 119.527C131.384 124.514 125.188 129.048 118.427 133.13L118.424 133.131C104.016 141.802 89.8382 146.827 75.9043 148.118L73.7197 148.32V148.126H71.3828C63.6078 148.126 56.5672 146.143 50.3184 142.155C44.1177 138.197 39.2332 132.913 35.6807 126.334L35.6699 126.313L35.6592 126.292C32.2403 119.586 30.5381 112.295 30.5381 104.453C30.5381 102.768 30.6033 101.199 30.7354 99.7466L30.7412 99.6724L30.7539 99.5981C31.0082 98.0724 31.2632 96.6679 31.5195 95.3862L31.5332 95.3237C39.3173 62.0179 56.8706 38.2336 84.2373 24.229L84.2451 24.2241C95.5613 18.5025 105.379 15.524 113.621 15.5239ZM114.564 25.7466C107.589 25.7466 99.1781 28.1771 89.2715 33.2534L89.2725 33.2544C64.6159 46.0121 48.8519 67.7086 42.042 98.6206C41.7981 99.9621 41.5535 101.304 41.3096 102.645C41.1955 103.81 41.1377 105.041 41.1377 106.338C41.1377 112.453 42.3915 117.906 44.8604 122.741C47.4576 127.456 50.98 131.213 55.4434 134.041C59.9974 136.722 65.2895 138.092 71.3828 138.092C78.4943 138.092 86.2249 136.465 94.5928 133.142C102.978 129.813 111.131 125.305 119.054 119.611L119.06 119.607L119.066 119.603C127.094 113.922 133.929 107.513 139.585 100.381L139.592 100.374L139.599 100.365C149.093 88.6513 153.672 77.4544 153.672 66.7397C153.672 61.4902 152.6 56.4204 150.446 51.5151L150.438 51.4966L150.43 51.478C148.389 46.5573 145.513 42.1801 141.79 38.3374L141.778 38.3257L141.768 38.314C138.161 34.467 134.021 31.4081 129.34 29.1274C124.714 26.8738 119.797 25.7466 114.564 25.7466Z" fill="white" stroke="white" stroke-width="4"/>
<path d="M8.71387 130.172C10.6827 130.172 12.5325 130.624 13.8916 131.883C15.2797 133.168 15.8056 134.965 15.8057 136.886C15.8057 138.855 15.3531 140.704 14.0947 142.063C12.8094 143.452 11.0117 143.978 9.09082 143.978C7.12228 143.977 5.27307 143.525 3.91406 142.267C2.52587 140.981 2 139.184 2 137.263C2.00007 135.294 2.45263 133.445 3.71094 132.086C4.99624 130.698 6.79311 130.172 8.71387 130.172Z" fill="white" stroke="white" stroke-width="4"/>
<line x1="45.548" y1="160.287" x2="145.881" y2="7.00083" stroke="white" stroke-width="14" stroke-linecap="round"/>
</svg>
