<svg width="303" height="170" viewBox="0 0 303 170" fill="none" xmlns="http://www.w3.org/2000/svg">
<path d="M295.702 13.1128C296.89 13.1128 298.149 13.4116 299.097 14.3589C299.899 15.1612 300.234 16.1867 300.318 17.2036C300.492 17.8928 300.53 18.7673 300.53 19.6382C300.53 23.5528 299.288 27.0185 296.801 29.939C294.344 32.8225 290.762 35.0739 286.225 36.7837L286.2 36.7935L286.175 36.8013C279.75 39.0302 272.163 40.1177 263.457 40.1177C259.768 40.1177 255.111 39.5927 249.522 38.5767C244.108 37.5922 237.827 36.1351 230.685 34.2144C229.299 34.9235 228.136 35.4981 227.202 35.937C228.499 35.9929 229.777 36.3925 230.733 37.4048C231.749 38.4807 232.081 39.9116 232.081 41.3237C232.081 42.6585 231.52 43.8041 230.639 44.7212C229.625 45.9847 228.318 47.5398 226.722 49.3823C225.221 51.2579 223.473 53.4441 221.477 55.9399C219.294 58.8547 216.899 62.6576 214.295 67.3706C212.383 70.8297 210.335 74.7623 208.149 79.1694C218.39 73.0087 228.724 69.8717 239.132 69.8716C248.198 69.8716 255.597 72.4452 261.082 77.7935C266.583 83.1574 269.229 90.5121 269.229 99.5903C269.229 116.308 258.995 129.937 239.525 140.568L239.521 140.57C223.275 149.396 206.229 153.823 188.408 153.823C178.149 153.823 170.117 152.258 164.591 148.86C158.906 145.364 156.049 140.032 156.049 133.155C156.049 131.335 156.499 129.398 157.305 127.371C158.02 125.252 159.108 123.422 160.595 121.935C162.079 120.328 163.875 119.276 165.969 119.276C166.905 119.276 167.975 119.511 168.797 120.333C169.619 121.154 169.854 122.225 169.854 123.162C169.854 123.97 169.504 124.82 169.188 125.483C168.828 126.24 168.312 127.146 167.665 128.181C166.584 129.911 166.083 131.622 166.083 133.344C166.083 135.133 166.49 136.604 167.238 137.828C167.99 139.056 169.155 140.146 170.838 141.063C174.265 142.93 179.661 143.978 187.276 143.978C191.581 143.978 195.886 143.67 200.193 143.055C204.498 142.44 208.741 141.518 212.923 140.288L212.933 140.285C224.048 137.073 233.631 132.457 241.711 126.458C251.819 118.782 256.968 110.48 257.686 101.581V100.156C257.685 93.6353 255.86 88.6324 252.383 84.9312L252.372 84.9204L252.362 84.9097C248.911 81.1242 244.145 79.1509 237.812 79.1509C231.25 79.1509 223.618 81.5591 214.864 86.6138C210.389 89.1979 206.829 91.1541 204.199 92.4692C202.887 93.1254 201.775 93.6378 200.88 93.9907C200.083 94.3051 199.174 94.6137 198.402 94.6138C196.492 94.6138 194.715 94.3186 193.36 93.4478C191.854 92.4796 191.122 90.9649 191.122 89.2192C191.122 87.17 192.491 85.635 194.19 84.4897C203.645 64.0887 213.283 48.461 223.139 37.7095L223.168 37.6772L223.198 37.646C223.391 37.4534 223.594 37.2698 223.807 37.0991C222.265 37.0879 220.647 36.5797 219.004 35.7583L218.972 35.7427L218.94 35.7251C217.308 34.8344 215.824 33.4255 215.824 31.3296C215.824 28.4754 217.814 26.4344 220.476 25.0337L220.534 25.0034L220.595 24.9761C223.016 23.8998 225.312 23.2954 227.441 23.2954C229.031 23.2955 231.292 23.8233 234.051 24.6997C246.851 28.3376 255.908 30.0834 261.383 30.0835C271.939 30.0835 279.553 29.0598 284.413 27.1567C286.827 26.2114 288.426 25.101 289.395 23.9204C290.306 22.8091 290.738 21.5434 290.689 20.0239L290.523 19.0239L290.496 18.8608V18.6958C290.496 17.2448 290.817 15.783 291.808 14.6753C292.837 13.5252 294.264 13.1128 295.702 13.1128Z" fill="white" stroke="white" stroke-width="4"/>
<path d="M113.621 19.5239C120.331 19.5239 126.78 20.9732 132.949 23.8608C139.073 26.7272 144.542 30.6352 149.354 35.5718H149.354C154.302 40.5188 158.153 46.1291 160.896 52.395C163.771 58.5519 165.215 64.9871 165.215 71.6821C165.215 73.7769 165.084 75.8715 164.822 77.9644C164.561 80.0518 164.17 82.1964 163.652 84.397L163.646 84.4243L163.64 84.4497C161.795 91.4318 157.879 98.9501 152.007 106.993L152 107.001C147.645 112.894 142.654 118.396 137.029 123.509L137.02 123.518L137.011 123.527C131.384 128.514 125.188 133.048 118.427 137.13L118.424 137.131C104.016 145.802 89.8382 150.827 75.9043 152.118L73.7197 152.32V152.126H71.3828C63.6078 152.126 56.5672 150.143 50.3184 146.155C44.1177 142.197 39.2332 136.913 35.6807 130.334L35.6699 130.313L35.6592 130.292C32.2403 123.586 30.5381 116.295 30.5381 108.453C30.5381 106.768 30.6033 105.199 30.7354 103.747L30.7412 103.672L30.7539 103.598C31.0082 102.072 31.2632 100.668 31.5195 99.3862L31.5332 99.3237C39.3173 66.0179 56.8706 42.2336 84.2373 28.229L84.2451 28.2241C95.5613 22.5025 105.379 19.524 113.621 19.5239ZM114.564 29.7466C107.589 29.7466 99.1781 32.1771 89.2715 37.2534L89.2725 37.2544C64.6159 50.0121 48.8519 71.7086 42.042 102.621C41.7981 103.962 41.5535 105.304 41.3096 106.645C41.1955 107.81 41.1377 109.041 41.1377 110.338C41.1377 116.453 42.3915 121.906 44.8604 126.741C47.4576 131.456 50.98 135.213 55.4434 138.041C59.9974 140.722 65.2895 142.092 71.3828 142.092C78.4943 142.092 86.2249 140.465 94.5928 137.142C102.978 133.813 111.131 129.305 119.054 123.611L119.06 123.607L119.066 123.603C127.094 117.922 133.929 111.513 139.585 104.381L139.592 104.374L139.599 104.365C149.093 92.6513 153.672 81.4544 153.672 70.7397C153.672 65.4902 152.6 60.4204 150.446 55.5151L150.438 55.4966L150.43 55.478C148.389 50.5573 145.513 46.1801 141.79 42.3374L141.778 42.3257L141.768 42.314C138.161 38.467 134.021 35.4081 129.34 33.1274C124.714 30.8738 119.797 29.7466 114.564 29.7466Z" fill="white" stroke="white" stroke-width="4"/>
<path d="M8.71387 134.172C10.6827 134.172 12.5325 134.624 13.8916 135.883C15.2797 137.168 15.8056 138.965 15.8057 140.886C15.8057 142.855 15.3531 144.704 14.0947 146.063C12.8094 147.452 11.0117 147.978 9.09082 147.978C7.12228 147.977 5.27307 147.525 3.91406 146.267C2.52587 144.981 2 143.184 2 141.263C2.00007 139.294 2.45263 137.445 3.71094 136.086C4.99624 134.698 6.79311 134.172 8.71387 134.172Z" fill="white" stroke="white" stroke-width="4"/>
<line x1="50.548" y1="160.287" x2="150.881" y2="7.00083" stroke="white" stroke-width="14" stroke-linecap="round"/>
</svg>
