<svg width="294" height="170" viewBox="0 0 294 170" fill="none" xmlns="http://www.w3.org/2000/svg">
<path d="M285.52 11.3755C287.19 11.3755 288.775 11.894 289.885 13.2261C290.937 14.4885 291.291 16.1639 291.291 17.9009C291.291 20.0239 290.261 21.7113 288.465 22.8013L288.466 22.8022C288.463 22.804 288.46 22.8054 288.457 22.8071C288.449 22.8117 288.442 22.8172 288.435 22.8218L288.434 22.8208C286.065 24.2903 282.544 25.2738 278.101 25.9106C273.46 26.6635 270.388 27.3908 268.727 28.0552C249.131 36.2451 229.532 49.2333 209.938 67.0796L209.938 67.0806C186.791 88.3514 175.7 107.334 175.7 124.064C175.7 130.827 177.645 135.851 181.315 139.411C184.999 142.983 190.168 144.88 197.082 144.88C197.772 144.88 198.44 144.852 199.085 144.798C197.515 141.641 196.779 137.839 196.779 133.492C196.779 128.172 197.913 123.371 200.231 119.142L200.242 119.124L200.253 119.104C204.148 112.353 209.149 106.508 215.247 101.578L215.275 101.555L215.305 101.533C222.58 96.0762 229.843 93.2134 237.059 93.2134C241.839 93.2134 245.96 94.5202 249.27 97.2544H249.269C252.699 99.9598 254.332 103.845 254.332 108.601C254.332 116.704 249.334 125.364 240.17 134.529C227.3 147.399 213.048 153.971 197.46 153.971C187.147 153.971 179.038 151.672 173.499 146.721C167.917 141.732 165.289 134.365 165.289 125.006C165.289 110.119 172.31 94.3132 185.916 77.6313L187.253 76.0142C193.489 68.5064 200.608 61.3268 208.604 54.4731C216.593 47.6248 225.399 41.0371 235.017 34.7095L235.025 34.7046L235.033 34.6987C253.031 23.1199 269.378 15.4184 284.059 11.6812L284.248 11.5864L284.671 11.3755H285.52ZM237.059 103.436C233.952 103.436 230.573 104.378 226.895 106.395C223.2 108.421 219.785 111.112 216.65 114.488L216.638 114.501L216.626 114.514C213.482 117.779 210.89 121.338 208.843 125.191C206.961 128.843 206.06 132.358 206.06 135.755C206.06 138.81 206.716 140.058 207.25 140.5L210.267 142.224C213.917 140.797 217.546 138.744 221.15 136.041L221.174 136.023C225.214 133.085 228.816 129.847 231.986 126.311L232.012 126.284C235.332 122.717 237.941 119.311 239.863 116.067C241.786 112.696 242.602 110.045 242.602 108.036C242.602 106.219 242.094 105.2 241.398 104.591C240.652 103.938 239.325 103.436 237.059 103.436Z" fill="white" stroke="white" stroke-width="4"/>
<path d="M113.621 15.5239C120.331 15.5239 126.78 16.9732 132.949 19.8608C139.073 22.7272 144.542 26.6352 149.354 31.5718H149.354C154.302 36.5188 158.153 42.1291 160.896 48.395C163.771 54.5519 165.215 60.9871 165.215 67.6821C165.215 69.7769 165.084 71.8715 164.822 73.9644C164.561 76.0518 164.17 78.1964 163.652 80.397L163.646 80.4243L163.64 80.4497C161.795 87.4318 157.879 94.9501 152.007 102.993L152 103.001C147.645 108.894 142.654 114.396 137.029 119.509L137.02 119.518L137.011 119.527C131.384 124.514 125.188 129.048 118.427 133.13L118.424 133.131C104.016 141.802 89.8382 146.827 75.9043 148.118L73.7197 148.32V148.126H71.3828C63.6078 148.126 56.5672 146.143 50.3184 142.155C44.1177 138.197 39.2332 132.913 35.6807 126.334L35.6699 126.313L35.6592 126.292C32.2403 119.586 30.5381 112.295 30.5381 104.453C30.5381 102.768 30.6033 101.199 30.7354 99.7466L30.7412 99.6724L30.7539 99.5981C31.0082 98.0724 31.2632 96.6679 31.5195 95.3862L31.5332 95.3237C39.3173 62.0179 56.8706 38.2336 84.2373 24.229L84.2451 24.2241C95.5613 18.5025 105.379 15.524 113.621 15.5239ZM114.564 25.7466C107.589 25.7466 99.1781 28.1771 89.2715 33.2534L89.2725 33.2544C64.6159 46.0121 48.8519 67.7086 42.042 98.6206C41.7981 99.9621 41.5535 101.304 41.3096 102.645C41.1955 103.81 41.1377 105.041 41.1377 106.338C41.1377 112.453 42.3915 117.906 44.8604 122.741C47.4576 127.456 50.98 131.213 55.4434 134.041C59.9974 136.722 65.2895 138.092 71.3828 138.092C78.4943 138.092 86.2249 136.465 94.5928 133.142C102.978 129.813 111.131 125.305 119.054 119.611L119.06 119.607L119.066 119.603C127.094 113.922 133.929 107.513 139.585 100.381L139.592 100.374L139.599 100.365C149.093 88.6513 153.672 77.4544 153.672 66.7397C153.672 61.4902 152.6 56.4204 150.446 51.5151L150.438 51.4966L150.43 51.478C148.389 46.5573 145.513 42.1801 141.79 38.3374L141.778 38.3257L141.768 38.314C138.161 34.467 134.021 31.4081 129.34 29.1274C124.714 26.8738 119.797 25.7466 114.564 25.7466Z" fill="white" stroke="white" stroke-width="4"/>
<path d="M8.71387 130.172C10.6827 130.172 12.5325 130.624 13.8916 131.883C15.2797 133.168 15.8056 134.965 15.8057 136.886C15.8057 138.855 15.3531 140.704 14.0947 142.063C12.8094 143.452 11.0117 143.978 9.09082 143.978C7.12228 143.977 5.27307 143.525 3.91406 142.267C2.52587 140.981 2 139.184 2 137.263C2.00007 135.294 2.45263 133.445 3.71094 132.086C4.99624 130.698 6.79311 130.172 8.71387 130.172Z" fill="white" stroke="white" stroke-width="4"/>
<line x1="47.548" y1="160.287" x2="147.881" y2="7.00083" stroke="white" stroke-width="14" stroke-linecap="round"/>
</svg>
