<svg width="297" height="170" viewBox="0 0 297 170" fill="none" xmlns="http://www.w3.org/2000/svg">
<path d="M288.537 16.2612C290.056 16.2612 291.343 17.1192 292.36 18.1245C293.415 19.0481 294.309 20.2865 294.309 21.8442V22.0903L294.249 22.3286C294.175 22.6243 294.071 22.9814 293.909 23.3042C293.831 23.4612 293.686 23.7201 293.44 23.9653C293.402 24.0034 293.357 24.043 293.307 24.0854C290.204 28.0342 284.755 32.9173 277.111 38.7114L276.699 39.0229L257.771 59.7739C254.285 63.7583 251.051 67.677 248.068 71.5298L248.049 71.5552C245.059 75.2926 242.321 78.9008 239.835 82.3804L238.265 84.6597C222.27 107.989 212.789 125.39 209.584 136.977C209.336 138.213 209.089 139.391 208.841 140.509L208.829 140.56C208.597 141.49 208.363 142.418 208.131 143.348C208.106 145.402 207.773 147.261 206.888 148.677C205.868 150.309 204.26 151.126 202.363 151.126C200.595 151.126 198.903 150.8 197.617 149.823C196.228 148.767 195.648 147.216 195.648 145.543C195.648 141.281 196.928 136.136 199.329 130.181C201.74 124.203 205.333 117.284 210.08 109.435L210.085 109.427C211.476 107.151 213.997 103.117 217.642 97.3354L217.647 97.3257C221.446 91.374 226.185 84.4886 231.857 76.6733C237.542 68.7154 243.916 60.4491 250.978 51.8745C255.892 45.8199 261.02 40.0081 266.361 34.439C264.088 34.9193 261.672 35.1577 259.121 35.1577C256.604 35.1577 253.549 34.8937 249.976 34.3833L249.935 34.3774L249.895 34.3706C246.475 33.7374 242.432 32.9152 237.768 31.9067C233.148 30.908 229.111 30.1638 225.65 29.6694L225.616 29.6646L225.582 29.6587C222.134 29.043 219.241 28.7466 216.883 28.7466C216.365 28.7466 215.569 28.8004 214.463 28.9233L214.354 28.9351H214.242C213.338 28.9351 212.181 28.9906 210.759 29.1069C207.464 29.7683 204.794 31.5701 202.698 34.6577L202.68 34.6851L202.66 34.7114C201.829 35.8543 200.468 38.691 198.566 43.5093L198.562 43.5181C197.899 45.176 197.161 46.5775 196.305 47.5972C195.452 48.6117 194.268 49.4887 192.746 49.4888C191.129 49.4888 189.563 49.0356 188.438 47.7974C187.345 46.5952 186.975 44.9868 186.975 43.3403C186.975 35.8436 192.271 28.3495 201.682 20.8462C204.189 18.8162 207.664 17.9585 211.791 17.9585C216.007 17.9585 222.19 18.742 230.257 20.2544C237.017 21.5063 242.947 22.4417 248.05 23.064H248.049C253.28 23.6866 257.657 23.9927 261.195 23.9927C271.265 23.9927 279.48 21.6405 285.971 17.0698C286.777 16.38 287.805 16.2613 288.537 16.2612Z" fill="white" stroke="white" stroke-width="4"/>
<path d="M113.621 18.5239C120.331 18.5239 126.78 19.9732 132.949 22.8608C139.073 25.7272 144.542 29.6352 149.354 34.5718H149.354C154.302 39.5188 158.153 45.1291 160.896 51.395C163.771 57.5519 165.215 63.9871 165.215 70.6821C165.215 72.7769 165.084 74.8715 164.822 76.9644C164.561 79.0518 164.17 81.1964 163.652 83.397L163.646 83.4243L163.64 83.4497C161.795 90.4318 157.879 97.9501 152.007 105.993L152 106.001C147.645 111.894 142.654 117.396 137.029 122.509L137.02 122.518L137.011 122.527C131.384 127.514 125.188 132.048 118.427 136.13L118.424 136.131C104.016 144.802 89.8382 149.827 75.9043 151.118L73.7197 151.32V151.126H71.3828C63.6078 151.126 56.5672 149.143 50.3184 145.155C44.1177 141.197 39.2332 135.913 35.6807 129.334L35.6699 129.313L35.6592 129.292C32.2403 122.586 30.5381 115.295 30.5381 107.453C30.5381 105.768 30.6033 104.199 30.7354 102.747L30.7412 102.672L30.7539 102.598C31.0082 101.072 31.2632 99.6679 31.5195 98.3862L31.5332 98.3237C39.3173 65.0179 56.8706 41.2336 84.2373 27.229L84.2451 27.2241C95.5613 21.5025 105.379 18.524 113.621 18.5239ZM114.564 28.7466C107.589 28.7466 99.1781 31.1771 89.2715 36.2534L89.2725 36.2544C64.6159 49.0121 48.8519 70.7086 42.042 101.621C41.7981 102.962 41.5535 104.304 41.3096 105.645C41.1955 106.81 41.1377 108.041 41.1377 109.338C41.1377 115.453 42.3915 120.906 44.8604 125.741C47.4576 130.456 50.98 134.213 55.4434 137.041C59.9974 139.722 65.2895 141.092 71.3828 141.092C78.4943 141.092 86.2249 139.465 94.5928 136.142C102.978 132.813 111.131 128.305 119.054 122.611L119.06 122.607L119.066 122.603C127.094 116.922 133.929 110.513 139.585 103.381L139.592 103.374L139.599 103.365C149.093 91.6513 153.672 80.4544 153.672 69.7397C153.672 64.4902 152.6 59.4204 150.446 54.5151L150.438 54.4966L150.43 54.478C148.389 49.5573 145.513 45.1801 141.79 41.3374L141.778 41.3257L141.768 41.314C138.161 37.467 134.021 34.4081 129.34 32.1274C124.714 29.8738 119.797 28.7466 114.564 28.7466Z" fill="white" stroke="white" stroke-width="4"/>
<path d="M8.71387 133.172C10.6827 133.172 12.5325 133.624 13.8916 134.883C15.2797 136.168 15.8056 137.965 15.8057 139.886C15.8057 141.855 15.3531 143.704 14.0947 145.063C12.8094 146.452 11.0117 146.978 9.09082 146.978C7.12228 146.977 5.27307 146.525 3.91406 145.267C2.52587 143.981 2 142.184 2 140.263C2.00007 138.294 2.45263 136.445 3.71094 135.086C4.99624 133.698 6.79311 133.172 8.71387 133.172Z" fill="white" stroke="white" stroke-width="4"/>
<line x1="49.548" y1="160.287" x2="149.881" y2="7.00083" stroke="white" stroke-width="14" stroke-linecap="round"/>
</svg>
